<?xml version="1.0" encoding="UTF-8"?>
<!DOCTYPE svg PUBLIC "-//W3C//DTD SVG 1.1//EN" "http://www.w3.org/Graphics/SVG/1.1/DTD/svg11.dtd">
<svg xmlns="http://www.w3.org/2000/svg" version="1.1" width="193mm" height="138mm" viewBox="0 0 19300 13800">
 <path fill="rgb(255,255,255)" stroke="none" d="M 9648,13839 L 0,13839 0,8 19295,8 19295,13839 9648,13839 Z"/>
 <path fill="none" stroke="rgb(179,179,179)" stroke-linejoin="round" d="M 10395,11215 L 3449,11215 3449,1447 17342,1447 17342,11215 10395,11215 Z"/>
 <path fill="none" stroke="rgb(128,128,128)" stroke-width="50" stroke-linejoin="round" d="M 3449,1446 L 3449,11214"/>
 <path fill="none" stroke="rgb(128,128,128)" stroke-width="50" stroke-linejoin="round" d="M 8080,1446 L 8080,11214"/>
 <path fill="none" stroke="rgb(128,128,128)" stroke-width="50" stroke-linejoin="round" d="M 12710,1446 L 12710,11214"/>
 <path fill="none" stroke="rgb(128,128,128)" stroke-width="50" stroke-linejoin="round" d="M 17342,1446 L 17342,11214"/>
 <path fill="none" stroke="rgb(179,179,179)" stroke-width="10" stroke-linejoin="round" d="M 4843,1446 L 4843,11214"/>
 <path fill="none" stroke="rgb(179,179,179)" stroke-width="10" stroke-linejoin="round" d="M 5658,1446 L 5658,11214"/>
 <path fill="none" stroke="rgb(179,179,179)" stroke-width="10" stroke-linejoin="round" d="M 6237,1446 L 6237,11214"/>
 <path fill="none" stroke="rgb(179,179,179)" stroke-width="10" stroke-linejoin="round" d="M 6686,1446 L 6686,11214"/>
 <path fill="none" stroke="rgb(179,179,179)" stroke-width="10" stroke-linejoin="round" d="M 7052,1446 L 7052,11214"/>
 <path fill="none" stroke="rgb(179,179,179)" stroke-width="10" stroke-linejoin="round" d="M 7362,1446 L 7362,11214"/>
 <path fill="none" stroke="rgb(179,179,179)" stroke-width="10" stroke-linejoin="round" d="M 7631,1446 L 7631,11214"/>
 <path fill="none" stroke="rgb(179,179,179)" stroke-width="10" stroke-linejoin="round" d="M 7868,1446 L 7868,11214"/>
 <path fill="none" stroke="rgb(179,179,179)" stroke-width="10" stroke-linejoin="round" d="M 9474,1446 L 9474,11214"/>
 <path fill="none" stroke="rgb(179,179,179)" stroke-width="10" stroke-linejoin="round" d="M 10289,1446 L 10289,11214"/>
 <path fill="none" stroke="rgb(179,179,179)" stroke-width="10" stroke-linejoin="round" d="M 10867,1446 L 10867,11214"/>
 <path fill="none" stroke="rgb(179,179,179)" stroke-width="10" stroke-linejoin="round" d="M 11316,1446 L 11316,11214"/>
 <path fill="none" stroke="rgb(179,179,179)" stroke-width="10" stroke-linejoin="round" d="M 11683,1446 L 11683,11214"/>
 <path fill="none" stroke="rgb(179,179,179)" stroke-width="10" stroke-linejoin="round" d="M 11993,1446 L 11993,11214"/>
 <path fill="none" stroke="rgb(179,179,179)" stroke-width="10" stroke-linejoin="round" d="M 12261,1446 L 12261,11214"/>
 <path fill="none" stroke="rgb(179,179,179)" stroke-width="10" stroke-linejoin="round" d="M 12498,1446 L 12498,11214"/>
 <path fill="none" stroke="rgb(179,179,179)" stroke-width="10" stroke-linejoin="round" d="M 14104,1446 L 14104,11214"/>
 <path fill="none" stroke="rgb(179,179,179)" stroke-width="10" stroke-linejoin="round" d="M 14920,1446 L 14920,11214"/>
 <path fill="none" stroke="rgb(179,179,179)" stroke-width="10" stroke-linejoin="round" d="M 15499,1446 L 15499,11214"/>
 <path fill="none" stroke="rgb(179,179,179)" stroke-width="10" stroke-linejoin="round" d="M 15947,1446 L 15947,11214"/>
 <path fill="none" stroke="rgb(179,179,179)" stroke-width="10" stroke-linejoin="round" d="M 16314,1446 L 16314,11214"/>
 <path fill="none" stroke="rgb(179,179,179)" stroke-width="10" stroke-linejoin="round" d="M 16624,1446 L 16624,11214"/>
 <path fill="none" stroke="rgb(179,179,179)" stroke-width="10" stroke-linejoin="round" d="M 16893,1446 L 16893,11214"/>
 <path fill="none" stroke="rgb(179,179,179)" stroke-width="10" stroke-linejoin="round" d="M 17130,1446 L 17130,11214"/>
 <path fill="none" stroke="rgb(128,128,128)" stroke-width="50" stroke-linejoin="round" d="M 17342,11213 L 3449,11213"/>
 <path fill="none" stroke="rgb(128,128,128)" stroke-width="50" stroke-linejoin="round" d="M 17342,7957 L 3449,7957"/>
 <path fill="none" stroke="rgb(128,128,128)" stroke-width="50" stroke-linejoin="round" d="M 17342,4702 L 3449,4702"/>
 <path fill="none" stroke="rgb(128,128,128)" stroke-width="50" stroke-linejoin="round" d="M 17342,1445 L 3449,1445"/>
 <path fill="none" stroke="rgb(179,179,179)" stroke-width="10" stroke-linejoin="round" d="M 17342,10233 L 3449,10233"/>
 <path fill="none" stroke="rgb(179,179,179)" stroke-width="10" stroke-linejoin="round" d="M 17342,9660 L 3449,9660"/>
 <path fill="none" stroke="rgb(179,179,179)" stroke-width="10" stroke-linejoin="round" d="M 17342,9253 L 3449,9253"/>
 <path fill="none" stroke="rgb(179,179,179)" stroke-width="10" stroke-linejoin="round" d="M 17342,8937 L 3449,8937"/>
 <path fill="none" stroke="rgb(179,179,179)" stroke-width="10" stroke-linejoin="round" d="M 17342,8680 L 3449,8680"/>
 <path fill="none" stroke="rgb(179,179,179)" stroke-width="10" stroke-linejoin="round" d="M 17342,8462 L 3449,8462"/>
 <path fill="none" stroke="rgb(179,179,179)" stroke-width="10" stroke-linejoin="round" d="M 17342,8273 L 3449,8273"/>
 <path fill="none" stroke="rgb(179,179,179)" stroke-width="10" stroke-linejoin="round" d="M 17342,8106 L 3449,8106"/>
 <path fill="none" stroke="rgb(179,179,179)" stroke-width="10" stroke-linejoin="round" d="M 17342,6977 L 3449,6977"/>
 <path fill="none" stroke="rgb(179,179,179)" stroke-width="10" stroke-linejoin="round" d="M 17342,6405 L 3449,6405"/>
 <path fill="none" stroke="rgb(179,179,179)" stroke-width="10" stroke-linejoin="round" d="M 17342,5998 L 3449,5998"/>
 <path fill="none" stroke="rgb(179,179,179)" stroke-width="10" stroke-linejoin="round" d="M 17342,5682 L 3449,5682"/>
 <path fill="none" stroke="rgb(179,179,179)" stroke-width="10" stroke-linejoin="round" d="M 17342,5424 L 3449,5424"/>
 <path fill="none" stroke="rgb(179,179,179)" stroke-width="10" stroke-linejoin="round" d="M 17342,5206 L 3449,5206"/>
 <path fill="none" stroke="rgb(179,179,179)" stroke-width="10" stroke-linejoin="round" d="M 17342,5017 L 3449,5017"/>
 <path fill="none" stroke="rgb(179,179,179)" stroke-width="10" stroke-linejoin="round" d="M 17342,4851 L 3449,4851"/>
 <path fill="none" stroke="rgb(179,179,179)" stroke-width="10" stroke-linejoin="round" d="M 17342,3722 L 3449,3722"/>
 <path fill="none" stroke="rgb(179,179,179)" stroke-width="10" stroke-linejoin="round" d="M 17342,3148 L 3449,3148"/>
 <path fill="none" stroke="rgb(179,179,179)" stroke-width="10" stroke-linejoin="round" d="M 17342,2741 L 3449,2741"/>
 <path fill="none" stroke="rgb(179,179,179)" stroke-width="10" stroke-linejoin="round" d="M 17342,2426 L 3449,2426"/>
 <path fill="none" stroke="rgb(179,179,179)" stroke-width="10" stroke-linejoin="round" d="M 17342,2168 L 3449,2168"/>
 <path fill="none" stroke="rgb(179,179,179)" stroke-width="10" stroke-linejoin="round" d="M 17342,1950 L 3449,1950"/>
 <path fill="none" stroke="rgb(179,179,179)" stroke-width="10" stroke-linejoin="round" d="M 17342,1761 L 3449,1761"/>
 <path fill="none" stroke="rgb(179,179,179)" stroke-width="10" stroke-linejoin="round" d="M 17342,1595 L 3449,1595"/>
 <path fill="none" stroke="rgb(179,179,179)" stroke-linejoin="round" d="M 3449,11364 L 3449,11214"/>
 <path fill="none" stroke="rgb(179,179,179)" stroke-linejoin="round" d="M 3449,11364 L 3449,11214"/>
 <path fill="none" stroke="rgb(179,179,179)" stroke-linejoin="round" d="M 8080,11364 L 8080,11214"/>
 <path fill="none" stroke="rgb(179,179,179)" stroke-linejoin="round" d="M 8080,11364 L 8080,11214"/>
 <path fill="none" stroke="rgb(179,179,179)" stroke-linejoin="round" d="M 12710,11364 L 12710,11214"/>
 <path fill="none" stroke="rgb(179,179,179)" stroke-linejoin="round" d="M 12710,11364 L 12710,11214"/>
 <path fill="none" stroke="rgb(179,179,179)" stroke-linejoin="round" d="M 17342,11364 L 17342,11214"/>
 <path fill="none" stroke="rgb(179,179,179)" stroke-linejoin="round" d="M 17342,11364 L 17342,11214"/>
 <path fill="none" stroke="rgb(179,179,179)" stroke-linejoin="round" d="M 3449,11214 L 17342,11214"/>
 <path fill="none" stroke="rgb(179,179,179)" stroke-linejoin="round" d="M 3299,11213 L 3449,11213"/>
 <path fill="none" stroke="rgb(179,179,179)" stroke-linejoin="round" d="M 3299,11213 L 3449,11213"/>
 <path fill="none" stroke="rgb(179,179,179)" stroke-linejoin="round" d="M 3299,7957 L 3449,7957"/>
 <path fill="none" stroke="rgb(179,179,179)" stroke-linejoin="round" d="M 3299,7957 L 3449,7957"/>
 <path fill="none" stroke="rgb(179,179,179)" stroke-linejoin="round" d="M 3299,4702 L 3449,4702"/>
 <path fill="none" stroke="rgb(179,179,179)" stroke-linejoin="round" d="M 3299,4702 L 3449,4702"/>
 <path fill="none" stroke="rgb(179,179,179)" stroke-linejoin="round" d="M 3299,1445 L 3449,1445"/>
 <path fill="none" stroke="rgb(179,179,179)" stroke-linejoin="round" d="M 3299,1445 L 3449,1445"/>
 <path fill="none" stroke="rgb(179,179,179)" stroke-linejoin="round" d="M 3449,11214 L 3449,1446"/>
 <defs>
  <mask id="mask1">
   <g>
    <defs>
     <linearGradient id="gradient1" x1="10297" y1="-25064" x2="10297" y2="-15214" gradientUnits="userSpaceOnUse">
      <stop offset="0.5" style="stop-color:rgb(128,128,128)"/>
      <stop offset="0.5" style="stop-color:rgb(128,128,128)"/>
      <stop offset="1" style="stop-color:rgb(128,128,128)"/>
      <stop offset="1" style="stop-color:rgb(128,128,128)"/>
     </linearGradient>
    </defs>
    <path style="fill:url(#gradient1)" d="M 3311,-25063 L 17284,-25063 17284,-15215 3311,-15215 3311,-25063 Z"/>
   </g>
  </mask>
 </defs>
 <g style="mask:url(#mask1)">
  <path fill="none" stroke="rgb(0,0,0)" stroke-width="80" stroke-linejoin="round" d="M 3449,11214 L 4843,10233 5658,9660 6237,9253 6686,8937 7052,8680 7362,8462 7631,8273 7868,8106 8080,7957 8272,7822 8895,7384 9474,6977 9922,6662 10289,6405 10599,6186 10867,5998 11316,5682 11683,5424 11847,5309 11993,5206 12261,5017 12498,4851 12710,4702 14104,3722 15947,2426 17342,1446"/>
 </g>
 <path fill="none" stroke="rgb(87,157,28)" stroke-width="80" stroke-linejoin="round" d="M 9426,11214 L 9474,10762 9922,9796 10289,9228 10599,8771 10867,8298 11316,7662 11683,7224 11847,7044 11993,6841 12261,6861 12498,6568 12710,6326 14104,4987 15947,3513 17342,2478"/>
 <path fill="none" stroke="rgb(255,211,32)" stroke-width="80" stroke-linejoin="round" d="M 3449,10871 L 4843,10871 5658,10871 6237,10871 6686,10834 7052,10576 7362,10358 7631,10170 7868,10003 8080,9854 8272,9719 8895,9281 9474,8874 9922,8558 10289,8300 10599,8082 10867,7894 11316,7578 11683,7320 11847,7205 11993,7205 12261,7205 12498,7205 12710,7205 14104,7205 15947,7205 17342,7205"/>
 <path fill="none" stroke="rgb(0,69,134)" stroke-width="80" stroke-linejoin="round" d="M 5144,11214 L 5658,10442 6237,9795 6686,9366 7052,9108 7362,8890 7631,8701 7868,8535 8080,8386 8272,8251 8895,7816 9474,7544 9922,7316 10289,7119 10599,6961 10867,6864 11316,6685 11683,6527 11847,6452 11993,6361 12261,5954 12498,5792 12710,5647 14104,4684 15947,3399 17342,2422"/>
 <path fill="none" stroke="rgb(192,192,192)" stroke-width="80" stroke-linejoin="round" stroke-dasharray="158,158" d="M 5144,11214 L 5658,10442 6237,9795 6686,9366 7052,9108 7362,8890 7631,8701 7868,8535 8080,8386 8272,8251 8895,7812 9474,7406 9922,7090 10289,6833 10599,6615 10867,6426 11316,6111 11683,5853 11847,5738 11993,5600 12261,5356 12498,5147 12710,4966 14104,3847 15947,2475 17342,1470"/>
 <path fill="none" stroke="rgb(255,66,14)" stroke-width="80" stroke-linejoin="round" stroke-dasharray="158,158" d="M 3449,10871 L 4843,10871 5658,10871 6237,10871 6686,10834 7052,10576 7362,10358 7631,10170 7868,10003 8080,9854 8272,9719 8895,9270 9474,8543 9922,8066 10289,7709 10599,7405 10867,7101 11316,6640 11683,6292 11847,6143 11993,6031 12261,6043 12498,5871 12710,5718 14104,4720 15947,3413 17342,2429"/>
 <text class="TextShape"><tspan class="TextParagraph" font-family="Arial" font-size="353px" font-weight="400"><tspan class="TextPosition" x="2615" y="11782"><tspan fill="rgb(0,0,0)" stroke="none">€ </tspan><tspan fill="rgb(0,0,0)" stroke="none">1.000,00</tspan></tspan></tspan></text>
 <text class="TextShape"><tspan class="TextParagraph" font-family="Arial" font-size="353px" font-weight="400"><tspan class="TextPosition" x="7147" y="11782"><tspan fill="rgb(0,0,0)" stroke="none">€ </tspan><tspan fill="rgb(0,0,0)" stroke="none">10.000,00</tspan></tspan></tspan></text>
 <text class="TextShape"><tspan class="TextParagraph" font-family="Arial" font-size="353px" font-weight="400"><tspan class="TextPosition" x="11679" y="11782"><tspan fill="rgb(0,0,0)" stroke="none">€ </tspan><tspan fill="rgb(0,0,0)" stroke="none">100.000,00</tspan></tspan></tspan></text>
 <text class="TextShape"><tspan class="TextParagraph" font-family="Arial" font-size="353px" font-weight="400"><tspan class="TextPosition" x="16162" y="11782"><tspan fill="rgb(0,0,0)" stroke="none">€ </tspan><tspan fill="rgb(0,0,0)" stroke="none">1.000.000,00</tspan></tspan></tspan></text>
 <text class="TextShape"><tspan class="TextParagraph" font-family="Arial" font-size="353px" font-weight="400"><tspan class="TextPosition" x="1532" y="11334"><tspan fill="rgb(0,0,0)" stroke="none">€ </tspan><tspan fill="rgb(0,0,0)" stroke="none">1.000,00</tspan></tspan></tspan></text>
 <text class="TextShape"><tspan class="TextParagraph" font-family="Arial" font-size="353px" font-weight="400"><tspan class="TextPosition" x="1333" y="8078"><tspan fill="rgb(0,0,0)" stroke="none">€ </tspan><tspan fill="rgb(0,0,0)" stroke="none">10.000,00</tspan></tspan></tspan></text>
 <text class="TextShape"><tspan class="TextParagraph" font-family="Arial" font-size="353px" font-weight="400"><tspan class="TextPosition" x="1135" y="4822"><tspan fill="rgb(0,0,0)" stroke="none">€ </tspan><tspan fill="rgb(0,0,0)" stroke="none">100.000,00</tspan></tspan></tspan></text>
 <text class="TextShape"><tspan class="TextParagraph" font-family="Arial" font-size="353px" font-weight="400"><tspan class="TextPosition" x="837" y="1565"><tspan fill="rgb(0,0,0)" stroke="none">€ </tspan><tspan fill="rgb(0,0,0)" stroke="none">1.000.000,00</tspan></tspan></tspan></text>
 <path fill="none" stroke="rgb(255,66,14)" stroke-width="80" stroke-linejoin="round" stroke-dasharray="158,158" d="M 1663,12856 L 3263,12856"/>
 <path fill="none" stroke="rgb(192,192,192)" stroke-width="80" stroke-linejoin="round" stroke-dasharray="158,158" d="M 6792,12856 L 8392,12856"/>
 <path fill="none" stroke="rgb(0,69,134)" stroke-width="80" stroke-linejoin="round" d="M 12317,12856 L 13917,12856"/>
 <path fill="none" stroke="rgb(255,211,32)" stroke-width="80" stroke-linejoin="round" d="M 1663,13354 L 3263,13354"/>
 <path fill="none" stroke="rgb(87,157,28)" stroke-width="80" stroke-linejoin="round" d="M 6792,13354 L 8392,13354"/>
 <defs>
  <mask id="mask2">
   <g>
    <defs>
     <linearGradient id="gradient2" x1="13019" y1="-13156" x2="13019" y2="-13074" gradientUnits="userSpaceOnUse">
      <stop offset="0.5" style="stop-color:rgb(128,128,128)"/>
      <stop offset="0.5" style="stop-color:rgb(128,128,128)"/>
      <stop offset="1" style="stop-color:rgb(128,128,128)"/>
      <stop offset="1" style="stop-color:rgb(128,128,128)"/>
     </linearGradient>
    </defs>
    <path style="fill:url(#gradient2)" d="M 12179,-13155 L 13859,-13155 13859,-13075 12179,-13075 12179,-13155 Z"/>
   </g>
  </mask>
 </defs>
 <g style="mask:url(#mask2)">
  <path fill="none" stroke="rgb(0,0,0)" stroke-width="80" stroke-linejoin="round" d="M 12317,13354 L 13917,13354"/>
 </g>
 <text class="TextShape"><tspan class="TextParagraph" font-family="Arial" font-size="353px" font-weight="400"><tspan class="TextPosition" x="3363" y="12976"><tspan fill="rgb(0,0,0)" stroke="none">Summe ESt, SV, PV</tspan></tspan></tspan></text>
 <text class="TextShape"><tspan class="TextParagraph" font-family="Arial" font-size="353px" font-weight="400"><tspan class="TextPosition" x="8492" y="12976"><tspan fill="rgb(0,0,0)" stroke="none">BMGr-SV-PV</tspan></tspan></tspan></text>
 <text class="TextShape"><tspan class="TextParagraph" font-family="Arial" font-size="353px" font-weight="400"><tspan class="TextPosition" x="14017" y="12976"><tspan fill="rgb(0,0,0)" stroke="none">Uns bleiben</tspan></tspan></tspan></text>
 <text class="TextShape"><tspan class="TextParagraph" font-family="Arial" font-size="353px" font-weight="400"><tspan class="TextPosition" x="3363" y="13474"><tspan fill="rgb(0,0,0)" stroke="none">Summe SV, PV</tspan></tspan></tspan></text>
 <text class="TextShape"><tspan class="TextParagraph" font-family="Arial" font-size="353px" font-weight="400"><tspan class="TextPosition" x="8492" y="13474"><tspan fill="rgb(0,0,0)" stroke="none">ESt der (BMGr-SV-PV)</tspan></tspan></tspan></text>
 <text class="TextShape"><tspan class="TextParagraph" font-family="Arial" font-size="353px" font-weight="400"><tspan class="TextPosition" x="14017" y="13474"><tspan fill="rgb(0,0,0)" stroke="none">Bemessungsgrundlage</tspan></tspan></tspan></text>
</svg>