<?xml version="1.0" encoding="UTF-8"?>
<!DOCTYPE svg PUBLIC "-//W3C//DTD SVG 1.1//EN" "http://www.w3.org/Graphics/SVG/1.1/DTD/svg11.dtd">
<svg width="193mm" height="150mm" viewBox="0 0 19300 15000" version="1.1" xmlns="http://www.w3.org/2000/svg" stroke-width="28.222" stroke-linejoin="round" xml:space="preserve">
 <path fill="rgb(255,255,255)" stroke="none" d="M 9649,15047 L 0,15047 0,14 19298,14 19298,15047 9649,15047 Z"/>
 <path fill="none" stroke="rgb(179,179,179)" stroke-linejoin="round" d="M 10049,11864 L 2559,11864 2559,510 17539,510 17539,11864 10049,11864 Z"/>
 <path fill="none" stroke="rgb(128,128,128)" stroke-width="50" stroke-linejoin="round" d="M 2559,509 L 2559,11863"/>
 <path fill="none" stroke="rgb(128,128,128)" stroke-width="50" stroke-linejoin="round" d="M 7552,509 L 7552,11863"/>
 <path fill="none" stroke="rgb(128,128,128)" stroke-width="50" stroke-linejoin="round" d="M 12545,509 L 12545,11863"/>
 <path fill="none" stroke="rgb(128,128,128)" stroke-width="50" stroke-linejoin="round" d="M 17539,509 L 17539,11863"/>
 <path fill="none" stroke="rgb(179,179,179)" stroke-width="10" stroke-linejoin="round" d="M 4062,509 L 4062,11863"/>
 <path fill="none" stroke="rgb(179,179,179)" stroke-width="10" stroke-linejoin="round" d="M 4941,509 L 4941,11863"/>
 <path fill="none" stroke="rgb(179,179,179)" stroke-width="10" stroke-linejoin="round" d="M 5565,509 L 5565,11863"/>
 <path fill="none" stroke="rgb(179,179,179)" stroke-width="10" stroke-linejoin="round" d="M 6049,509 L 6049,11863"/>
 <path fill="none" stroke="rgb(179,179,179)" stroke-width="10" stroke-linejoin="round" d="M 6444,509 L 6444,11863"/>
 <path fill="none" stroke="rgb(179,179,179)" stroke-width="10" stroke-linejoin="round" d="M 6779,509 L 6779,11863"/>
 <path fill="none" stroke="rgb(179,179,179)" stroke-width="10" stroke-linejoin="round" d="M 7068,509 L 7068,11863"/>
 <path fill="none" stroke="rgb(179,179,179)" stroke-width="10" stroke-linejoin="round" d="M 7324,509 L 7324,11863"/>
 <path fill="none" stroke="rgb(179,179,179)" stroke-width="10" stroke-linejoin="round" d="M 9055,509 L 9055,11863"/>
 <path fill="none" stroke="rgb(179,179,179)" stroke-width="10" stroke-linejoin="round" d="M 9934,509 L 9934,11863"/>
 <path fill="none" stroke="rgb(179,179,179)" stroke-width="10" stroke-linejoin="round" d="M 10558,509 L 10558,11863"/>
 <path fill="none" stroke="rgb(179,179,179)" stroke-width="10" stroke-linejoin="round" d="M 11042,509 L 11042,11863"/>
 <path fill="none" stroke="rgb(179,179,179)" stroke-width="10" stroke-linejoin="round" d="M 11437,509 L 11437,11863"/>
 <path fill="none" stroke="rgb(179,179,179)" stroke-width="10" stroke-linejoin="round" d="M 11771,509 L 11771,11863"/>
 <path fill="none" stroke="rgb(179,179,179)" stroke-width="10" stroke-linejoin="round" d="M 12061,509 L 12061,11863"/>
 <path fill="none" stroke="rgb(179,179,179)" stroke-width="10" stroke-linejoin="round" d="M 12316,509 L 12316,11863"/>
 <path fill="none" stroke="rgb(179,179,179)" stroke-width="10" stroke-linejoin="round" d="M 14048,509 L 14048,11863"/>
 <path fill="none" stroke="rgb(179,179,179)" stroke-width="10" stroke-linejoin="round" d="M 14927,509 L 14927,11863"/>
 <path fill="none" stroke="rgb(179,179,179)" stroke-width="10" stroke-linejoin="round" d="M 15551,509 L 15551,11863"/>
 <path fill="none" stroke="rgb(179,179,179)" stroke-width="10" stroke-linejoin="round" d="M 16035,509 L 16035,11863"/>
 <path fill="none" stroke="rgb(179,179,179)" stroke-width="10" stroke-linejoin="round" d="M 16431,509 L 16431,11863"/>
 <path fill="none" stroke="rgb(179,179,179)" stroke-width="10" stroke-linejoin="round" d="M 16765,509 L 16765,11863"/>
 <path fill="none" stroke="rgb(179,179,179)" stroke-width="10" stroke-linejoin="round" d="M 17055,509 L 17055,11863"/>
 <path fill="none" stroke="rgb(179,179,179)" stroke-width="10" stroke-linejoin="round" d="M 17310,509 L 17310,11863"/>
 <path fill="none" stroke="rgb(128,128,128)" stroke-width="50" stroke-linejoin="round" d="M 17539,11862 L 2559,11862"/>
 <path fill="none" stroke="rgb(128,128,128)" stroke-width="50" stroke-linejoin="round" d="M 17539,8077 L 2559,8077"/>
 <path fill="none" stroke="rgb(128,128,128)" stroke-width="50" stroke-linejoin="round" d="M 17539,4293 L 2559,4293"/>
 <path fill="none" stroke="rgb(128,128,128)" stroke-width="50" stroke-linejoin="round" d="M 17539,508 L 2559,508"/>
 <path fill="none" stroke="rgb(179,179,179)" stroke-width="10" stroke-linejoin="round" d="M 17539,10723 L 2559,10723"/>
 <path fill="none" stroke="rgb(179,179,179)" stroke-width="10" stroke-linejoin="round" d="M 17539,10057 L 2559,10057"/>
 <path fill="none" stroke="rgb(179,179,179)" stroke-width="10" stroke-linejoin="round" d="M 17539,9584 L 2559,9584"/>
 <path fill="none" stroke="rgb(179,179,179)" stroke-width="10" stroke-linejoin="round" d="M 17539,9217 L 2559,9217"/>
 <path fill="none" stroke="rgb(179,179,179)" stroke-width="10" stroke-linejoin="round" d="M 17539,8917 L 2559,8917"/>
 <path fill="none" stroke="rgb(179,179,179)" stroke-width="10" stroke-linejoin="round" d="M 17539,8664 L 2559,8664"/>
 <path fill="none" stroke="rgb(179,179,179)" stroke-width="10" stroke-linejoin="round" d="M 17539,8444 L 2559,8444"/>
 <path fill="none" stroke="rgb(179,179,179)" stroke-width="10" stroke-linejoin="round" d="M 17539,8251 L 2559,8251"/>
 <path fill="none" stroke="rgb(179,179,179)" stroke-width="10" stroke-linejoin="round" d="M 17539,6939 L 2559,6939"/>
 <path fill="none" stroke="rgb(179,179,179)" stroke-width="10" stroke-linejoin="round" d="M 17539,6273 L 2559,6273"/>
 <path fill="none" stroke="rgb(179,179,179)" stroke-width="10" stroke-linejoin="round" d="M 17539,5800 L 2559,5800"/>
 <path fill="none" stroke="rgb(179,179,179)" stroke-width="10" stroke-linejoin="round" d="M 17539,5433 L 2559,5433"/>
 <path fill="none" stroke="rgb(179,179,179)" stroke-width="10" stroke-linejoin="round" d="M 17539,5133 L 2559,5133"/>
 <path fill="none" stroke="rgb(179,179,179)" stroke-width="10" stroke-linejoin="round" d="M 17539,4880 L 2559,4880"/>
 <path fill="none" stroke="rgb(179,179,179)" stroke-width="10" stroke-linejoin="round" d="M 17539,4660 L 2559,4660"/>
 <path fill="none" stroke="rgb(179,179,179)" stroke-width="10" stroke-linejoin="round" d="M 17539,4467 L 2559,4467"/>
 <path fill="none" stroke="rgb(179,179,179)" stroke-width="10" stroke-linejoin="round" d="M 17539,3154 L 2559,3154"/>
 <path fill="none" stroke="rgb(179,179,179)" stroke-width="10" stroke-linejoin="round" d="M 17539,2488 L 2559,2488"/>
 <path fill="none" stroke="rgb(179,179,179)" stroke-width="10" stroke-linejoin="round" d="M 17539,2015 L 2559,2015"/>
 <path fill="none" stroke="rgb(179,179,179)" stroke-width="10" stroke-linejoin="round" d="M 17539,1648 L 2559,1648"/>
 <path fill="none" stroke="rgb(179,179,179)" stroke-width="10" stroke-linejoin="round" d="M 17539,1348 L 2559,1348"/>
 <path fill="none" stroke="rgb(179,179,179)" stroke-width="10" stroke-linejoin="round" d="M 17539,1095 L 2559,1095"/>
 <path fill="none" stroke="rgb(179,179,179)" stroke-width="10" stroke-linejoin="round" d="M 17539,875 L 2559,875"/>
 <path fill="none" stroke="rgb(179,179,179)" stroke-width="10" stroke-linejoin="round" d="M 17539,682 L 2559,682"/>
 <path fill="none" stroke="rgb(179,179,179)" stroke-linejoin="round" d="M 2559,12013 L 2559,11863"/>
 <path fill="none" stroke="rgb(179,179,179)" stroke-linejoin="round" d="M 2559,12013 L 2559,11863"/>
 <path fill="none" stroke="rgb(179,179,179)" stroke-linejoin="round" d="M 7552,12013 L 7552,11863"/>
 <path fill="none" stroke="rgb(179,179,179)" stroke-linejoin="round" d="M 7552,12013 L 7552,11863"/>
 <path fill="none" stroke="rgb(179,179,179)" stroke-linejoin="round" d="M 12545,12013 L 12545,11863"/>
 <path fill="none" stroke="rgb(179,179,179)" stroke-linejoin="round" d="M 12545,12013 L 12545,11863"/>
 <path fill="none" stroke="rgb(179,179,179)" stroke-linejoin="round" d="M 17539,12013 L 17539,11863"/>
 <path fill="none" stroke="rgb(179,179,179)" stroke-linejoin="round" d="M 17539,12013 L 17539,11863"/>
 <path fill="none" stroke="rgb(179,179,179)" stroke-linejoin="round" d="M 2559,11863 L 17539,11863"/>
 <path fill="none" stroke="rgb(179,179,179)" stroke-linejoin="round" d="M 2409,11862 L 2559,11862"/>
 <path fill="none" stroke="rgb(179,179,179)" stroke-linejoin="round" d="M 2409,11862 L 2559,11862"/>
 <path fill="none" stroke="rgb(179,179,179)" stroke-linejoin="round" d="M 2409,8077 L 2559,8077"/>
 <path fill="none" stroke="rgb(179,179,179)" stroke-linejoin="round" d="M 2409,8077 L 2559,8077"/>
 <path fill="none" stroke="rgb(179,179,179)" stroke-linejoin="round" d="M 2409,4293 L 2559,4293"/>
 <path fill="none" stroke="rgb(179,179,179)" stroke-linejoin="round" d="M 2409,4293 L 2559,4293"/>
 <path fill="none" stroke="rgb(179,179,179)" stroke-linejoin="round" d="M 2409,508 L 2559,508"/>
 <path fill="none" stroke="rgb(179,179,179)" stroke-linejoin="round" d="M 2409,508 L 2559,508"/>
 <path fill="none" stroke="rgb(179,179,179)" stroke-linejoin="round" d="M 2559,11863 L 2559,509"/>
 <path fill="none" stroke="rgb(255,0,255)" stroke-width="80" stroke-linejoin="round" d="M 6828,11863 L 7068,10924 7324,10361 7552,9942 7759,9609 8432,8704 9055,8005 9539,7518 9934,7142 10268,6836 10558,6578 11042,6159 11248,5984 11437,5826 11611,5681 11771,5548 11921,5397 12061,5244 12316,4974 12545,4742 14048,3363 16035,1728 17539,548"/>
 <path fill="none" stroke="rgb(128,128,128)" stroke-width="80" stroke-linejoin="round" d="M 2559,11863 L 4062,10723 4941,10057 5565,9584 6049,9217 6444,8917 6779,8664 7068,8444 7324,8251 7552,8077 7759,7921 8432,7412 9055,6939 9539,6572 9934,6273 10268,6019 10558,5800 11042,5433 11248,5276 11437,5133 11611,5002 11771,4880 11921,4766 12061,4660 12316,4467 12545,4293 14048,3154 16035,1648 17539,509"/>
 <path fill="none" stroke="rgb(87,157,28)" stroke-width="80" stroke-linejoin="round" d="M 9673,11863 L 9934,11019 10268,10110 10558,9515 11042,8716 11248,8384 11437,8108 11611,7871 11771,7665 11921,7440 12061,7221 12316,6827 12545,6495 14048,4746 16035,2954 17539,1729"/>
 <path fill="none" stroke="rgb(255,211,32)" stroke-width="80" stroke-linejoin="round" d="M 2559,10682 L 4062,10682 4941,10682 5565,10682 6049,10682 6444,10629 6779,10559 7068,10472 7324,10288 7552,10122 7759,9971 8432,9477 9055,9016 9539,8656 9934,8360 10268,8110 10558,7893 11042,7531 11248,7375 11437,7233 11611,7103 11771,6981 11921,6940 12061,6940 12316,6940 12545,6940 14048,6940 16035,6940 17539,6940"/>
 <path fill="none" stroke="rgb(0,69,134)" stroke-width="80" stroke-linejoin="round" d="M 4986,11863 L 5565,10765 6049,10084 6444,9633 6779,9288 7068,9010 7324,8813 7552,8637 7759,8478 8432,7961 9055,7485 9539,7187 9934,6946 10268,6761 10558,6596 11042,6313 11248,6200 11437,6093 11611,5993 11771,5899 11921,5789 12061,5675 12316,5480 12545,5313 14048,4228 16035,2761 17539,1635"/>
 <path fill="none" stroke="rgb(192,192,192)" stroke-width="80" stroke-linejoin="round" stroke-dasharray="158,102" d="M 4986,11863 L 5565,10765 6049,10084 6444,9633 6779,9288 7068,9010 7324,8813 7552,8637 7759,8478 8432,7961 9055,7485 9539,7116 9934,6814 10268,6559 10558,6339 11042,5971 11248,5814 11437,5670 11611,5538 11771,5416 11921,5276 12061,5133 12316,4880 12545,4660 14048,3327 16035,1715 17539,542"/>
 <path fill="none" stroke="rgb(255,66,14)" stroke-width="80" stroke-linejoin="round" stroke-dasharray="158,102" d="M 2559,10682 L 4062,10682 4941,10682 5565,10682 6049,10682 6444,10629 6779,10559 7068,10472 7324,10288 7552,10122 7759,9971 8432,9477 9055,9016 9539,8486 9934,8063 10268,7684 10558,7373 11042,6880 11248,6664 11437,6474 11611,6303 11771,6149 11921,6032 12061,5935 12316,5743 12545,5563 14048,4362 16035,2814 17539,1661"/>
 <text class="TextShape"><tspan class="TextParagraph" font-family="Liberation Sans, sans-serif" font-size="353px" font-weight="400"><tspan class="TextPosition" x="1781" y="12433"><tspan fill="rgb(0,0,0)" stroke="none">€ </tspan><tspan fill="rgb(0,0,0)" stroke="none">1.000,00</tspan></tspan></tspan></text>
 <text class="TextShape"><tspan class="TextParagraph" font-family="Liberation Sans, sans-serif" font-size="353px" font-weight="400"><tspan class="TextPosition" x="6682" y="12433"><tspan fill="rgb(0,0,0)" stroke="none">€ </tspan><tspan fill="rgb(0,0,0)" stroke="none">10.000,00</tspan></tspan></tspan></text>
 <text class="TextShape"><tspan class="TextParagraph" font-family="Liberation Sans, sans-serif" font-size="353px" font-weight="400"><tspan class="TextPosition" x="11584" y="12433"><tspan fill="rgb(0,0,0)" stroke="none">€ </tspan><tspan fill="rgb(0,0,0)" stroke="none">100.000,00</tspan></tspan></tspan></text>
 <text class="TextShape"><tspan class="TextParagraph" font-family="Liberation Sans, sans-serif" font-size="353px" font-weight="400"><tspan class="TextPosition" x="16441" y="12433"><tspan fill="rgb(0,0,0)" stroke="none">€ </tspan><tspan fill="rgb(0,0,0)" stroke="none">1.000.000,00</tspan></tspan></tspan></text>
 <text class="TextShape"><tspan class="TextParagraph" font-family="Liberation Sans, sans-serif" font-size="353px" font-weight="400"><tspan class="TextPosition" x="753" y="11989"><tspan fill="rgb(0,0,0)" stroke="none">€ </tspan><tspan fill="rgb(0,0,0)" stroke="none">1.000,00</tspan></tspan></tspan></text>
 <text class="TextShape"><tspan class="TextParagraph" font-family="Liberation Sans, sans-serif" font-size="353px" font-weight="400"><tspan class="TextPosition" x="569" y="8204"><tspan fill="rgb(0,0,0)" stroke="none">€ </tspan><tspan fill="rgb(0,0,0)" stroke="none">10.000,00</tspan></tspan></tspan></text>
 <text class="TextShape"><tspan class="TextParagraph" font-family="Liberation Sans, sans-serif" font-size="353px" font-weight="400"><tspan class="TextPosition" x="386" y="4419"><tspan fill="rgb(0,0,0)" stroke="none">€ </tspan><tspan fill="rgb(0,0,0)" stroke="none">100.000,00</tspan></tspan></tspan></text>
 <text class="TextShape"><tspan class="TextParagraph" font-family="Liberation Sans, sans-serif" font-size="353px" font-weight="400"><tspan class="TextPosition" x="112" y="634"><tspan fill="rgb(0,0,0)" stroke="none">€ </tspan><tspan fill="rgb(0,0,0)" stroke="none">1.000.000,00</tspan></tspan></tspan></text>
 <path fill="none" stroke="rgb(255,66,14)" stroke-width="80" stroke-linejoin="round" stroke-dasharray="158,102" d="M 3735,13280 L 5335,13280"/>
 <path fill="none" stroke="rgb(192,192,192)" stroke-width="80" stroke-linejoin="round" stroke-dasharray="158,102" d="M 10428,13280 L 12028,13280"/>
 <path fill="none" stroke="rgb(0,69,134)" stroke-width="80" stroke-linejoin="round" d="M 3735,13770 L 5335,13770"/>
 <path fill="none" stroke="rgb(255,211,32)" stroke-width="80" stroke-linejoin="round" d="M 10428,13770 L 12028,13770"/>
 <path fill="none" stroke="rgb(87,157,28)" stroke-width="80" stroke-linejoin="round" d="M 3735,14260 L 5335,14260"/>
 <path fill="none" stroke="rgb(128,128,128)" stroke-width="80" stroke-linejoin="round" d="M 10428,14260 L 12028,14260"/>
 <path fill="none" stroke="rgb(255,0,255)" stroke-width="80" stroke-linejoin="round" d="M 3735,14750 L 5335,14750"/>
 <text class="TextShape"><tspan class="TextParagraph" font-family="Liberation Sans, sans-serif" font-size="353px" font-weight="400"><tspan class="TextPosition" x="5435" y="13406"><tspan fill="rgb(0,0,0)" stroke="none">Summe ESt, SVA</tspan></tspan></tspan></text>
 <text class="TextShape"><tspan class="TextParagraph" font-family="Liberation Sans, sans-serif" font-size="353px" font-weight="400"><tspan class="TextPosition" x="12128" y="13406"><tspan fill="rgb(0,0,0)" stroke="none">BMGr-SVA</tspan></tspan></tspan></text>
 <text class="TextShape"><tspan class="TextParagraph" font-family="Liberation Sans, sans-serif" font-size="353px" font-weight="400"><tspan class="TextPosition" x="5435" y="13896"><tspan fill="rgb(0,0,0)" stroke="none">Uns bleiben</tspan></tspan></tspan></text>
 <text class="TextShape"><tspan class="TextParagraph" font-family="Liberation Sans, sans-serif" font-size="353px" font-weight="400"><tspan class="TextPosition" x="12128" y="13896"><tspan fill="rgb(0,0,0)" stroke="none">Summe SVA</tspan></tspan></tspan></text>
 <text class="TextShape"><tspan class="TextParagraph" font-family="Liberation Sans, sans-serif" font-size="353px" font-weight="400"><tspan class="TextPosition" x="5435" y="14386"><tspan fill="rgb(0,0,0)" stroke="none">ESt der (BMGr-SVA-Freibetrag)</tspan></tspan></tspan></text>
 <text class="TextShape"><tspan class="TextParagraph" font-family="Liberation Sans, sans-serif" font-size="353px" font-weight="400"><tspan class="TextPosition" x="12128" y="14386"><tspan fill="rgb(0,0,0)" stroke="none">Bemessungsgrundlage</tspan></tspan></tspan></text>
 <text class="TextShape"><tspan class="TextParagraph" font-family="Liberation Sans, sans-serif" font-size="353px" font-weight="400"><tspan class="TextPosition" x="5435" y="14876"><tspan fill="rgb(0,0,0)" stroke="none">BMGr-SVA-Freibetrag</tspan></tspan></tspan></text>
</svg>