<?xml version="1.0" encoding="UTF-8"?>
<!DOCTYPE svg PUBLIC "-//W3C//DTD SVG 1.1//EN" "http://www.w3.org/Graphics/SVG/1.1/DTD/svg11.dtd">
<svg width="193mm" height="150mm" viewBox="0 0 19300 15000" version="1.1" xmlns="http://www.w3.org/2000/svg" stroke-width="28.222" stroke-linejoin="round" xml:space="preserve">
 <path fill="rgb(255,255,255)" stroke="none" d="M 9649,15047 L 0,15047 0,14 19298,14 19298,15047 9649,15047 Z"/>
 <path fill="none" stroke="rgb(179,179,179)" stroke-linejoin="round" d="M 10065,11864 L 2627,11864 2627,510 17503,510 17503,11864 10065,11864 Z"/>
 <path fill="none" stroke="rgb(128,128,128)" stroke-width="50" stroke-linejoin="round" d="M 2627,509 L 2627,11863"/>
 <path fill="none" stroke="rgb(128,128,128)" stroke-width="50" stroke-linejoin="round" d="M 7586,509 L 7586,11863"/>
 <path fill="none" stroke="rgb(128,128,128)" stroke-width="50" stroke-linejoin="round" d="M 12544,509 L 12544,11863"/>
 <path fill="none" stroke="rgb(128,128,128)" stroke-width="50" stroke-linejoin="round" d="M 17503,509 L 17503,11863"/>
 <path fill="none" stroke="rgb(179,179,179)" stroke-width="10" stroke-linejoin="round" d="M 4119,509 L 4119,11863"/>
 <path fill="none" stroke="rgb(179,179,179)" stroke-width="10" stroke-linejoin="round" d="M 4993,509 L 4993,11863"/>
 <path fill="none" stroke="rgb(179,179,179)" stroke-width="10" stroke-linejoin="round" d="M 5612,509 L 5612,11863"/>
 <path fill="none" stroke="rgb(179,179,179)" stroke-width="10" stroke-linejoin="round" d="M 6093,509 L 6093,11863"/>
 <path fill="none" stroke="rgb(179,179,179)" stroke-width="10" stroke-linejoin="round" d="M 6485,509 L 6485,11863"/>
 <path fill="none" stroke="rgb(179,179,179)" stroke-width="10" stroke-linejoin="round" d="M 6817,509 L 6817,11863"/>
 <path fill="none" stroke="rgb(179,179,179)" stroke-width="10" stroke-linejoin="round" d="M 7105,509 L 7105,11863"/>
 <path fill="none" stroke="rgb(179,179,179)" stroke-width="10" stroke-linejoin="round" d="M 7359,509 L 7359,11863"/>
 <path fill="none" stroke="rgb(179,179,179)" stroke-width="10" stroke-linejoin="round" d="M 9078,509 L 9078,11863"/>
 <path fill="none" stroke="rgb(179,179,179)" stroke-width="10" stroke-linejoin="round" d="M 9951,509 L 9951,11863"/>
 <path fill="none" stroke="rgb(179,179,179)" stroke-width="10" stroke-linejoin="round" d="M 10570,509 L 10570,11863"/>
 <path fill="none" stroke="rgb(179,179,179)" stroke-width="10" stroke-linejoin="round" d="M 11051,509 L 11051,11863"/>
 <path fill="none" stroke="rgb(179,179,179)" stroke-width="10" stroke-linejoin="round" d="M 11443,509 L 11443,11863"/>
 <path fill="none" stroke="rgb(179,179,179)" stroke-width="10" stroke-linejoin="round" d="M 11775,509 L 11775,11863"/>
 <path fill="none" stroke="rgb(179,179,179)" stroke-width="10" stroke-linejoin="round" d="M 12063,509 L 12063,11863"/>
 <path fill="none" stroke="rgb(179,179,179)" stroke-width="10" stroke-linejoin="round" d="M 12317,509 L 12317,11863"/>
 <path fill="none" stroke="rgb(179,179,179)" stroke-width="10" stroke-linejoin="round" d="M 14036,509 L 14036,11863"/>
 <path fill="none" stroke="rgb(179,179,179)" stroke-width="10" stroke-linejoin="round" d="M 14910,509 L 14910,11863"/>
 <path fill="none" stroke="rgb(179,179,179)" stroke-width="10" stroke-linejoin="round" d="M 15529,509 L 15529,11863"/>
 <path fill="none" stroke="rgb(179,179,179)" stroke-width="10" stroke-linejoin="round" d="M 16010,509 L 16010,11863"/>
 <path fill="none" stroke="rgb(179,179,179)" stroke-width="10" stroke-linejoin="round" d="M 16402,509 L 16402,11863"/>
 <path fill="none" stroke="rgb(179,179,179)" stroke-width="10" stroke-linejoin="round" d="M 16734,509 L 16734,11863"/>
 <path fill="none" stroke="rgb(179,179,179)" stroke-width="10" stroke-linejoin="round" d="M 17022,509 L 17022,11863"/>
 <path fill="none" stroke="rgb(179,179,179)" stroke-width="10" stroke-linejoin="round" d="M 17276,509 L 17276,11863"/>
 <path fill="none" stroke="rgb(128,128,128)" stroke-width="50" stroke-linejoin="round" d="M 17503,11862 L 2627,11862"/>
 <path fill="none" stroke="rgb(128,128,128)" stroke-width="50" stroke-linejoin="round" d="M 17503,8077 L 2627,8077"/>
 <path fill="none" stroke="rgb(128,128,128)" stroke-width="50" stroke-linejoin="round" d="M 17503,4293 L 2627,4293"/>
 <path fill="none" stroke="rgb(128,128,128)" stroke-width="50" stroke-linejoin="round" d="M 17503,508 L 2627,508"/>
 <path fill="none" stroke="rgb(179,179,179)" stroke-width="10" stroke-linejoin="round" d="M 17503,10723 L 2627,10723"/>
 <path fill="none" stroke="rgb(179,179,179)" stroke-width="10" stroke-linejoin="round" d="M 17503,10057 L 2627,10057"/>
 <path fill="none" stroke="rgb(179,179,179)" stroke-width="10" stroke-linejoin="round" d="M 17503,9584 L 2627,9584"/>
 <path fill="none" stroke="rgb(179,179,179)" stroke-width="10" stroke-linejoin="round" d="M 17503,9217 L 2627,9217"/>
 <path fill="none" stroke="rgb(179,179,179)" stroke-width="10" stroke-linejoin="round" d="M 17503,8917 L 2627,8917"/>
 <path fill="none" stroke="rgb(179,179,179)" stroke-width="10" stroke-linejoin="round" d="M 17503,8664 L 2627,8664"/>
 <path fill="none" stroke="rgb(179,179,179)" stroke-width="10" stroke-linejoin="round" d="M 17503,8444 L 2627,8444"/>
 <path fill="none" stroke="rgb(179,179,179)" stroke-width="10" stroke-linejoin="round" d="M 17503,8251 L 2627,8251"/>
 <path fill="none" stroke="rgb(179,179,179)" stroke-width="10" stroke-linejoin="round" d="M 17503,6939 L 2627,6939"/>
 <path fill="none" stroke="rgb(179,179,179)" stroke-width="10" stroke-linejoin="round" d="M 17503,6273 L 2627,6273"/>
 <path fill="none" stroke="rgb(179,179,179)" stroke-width="10" stroke-linejoin="round" d="M 17503,5800 L 2627,5800"/>
 <path fill="none" stroke="rgb(179,179,179)" stroke-width="10" stroke-linejoin="round" d="M 17503,5433 L 2627,5433"/>
 <path fill="none" stroke="rgb(179,179,179)" stroke-width="10" stroke-linejoin="round" d="M 17503,5133 L 2627,5133"/>
 <path fill="none" stroke="rgb(179,179,179)" stroke-width="10" stroke-linejoin="round" d="M 17503,4880 L 2627,4880"/>
 <path fill="none" stroke="rgb(179,179,179)" stroke-width="10" stroke-linejoin="round" d="M 17503,4660 L 2627,4660"/>
 <path fill="none" stroke="rgb(179,179,179)" stroke-width="10" stroke-linejoin="round" d="M 17503,4467 L 2627,4467"/>
 <path fill="none" stroke="rgb(179,179,179)" stroke-width="10" stroke-linejoin="round" d="M 17503,3154 L 2627,3154"/>
 <path fill="none" stroke="rgb(179,179,179)" stroke-width="10" stroke-linejoin="round" d="M 17503,2488 L 2627,2488"/>
 <path fill="none" stroke="rgb(179,179,179)" stroke-width="10" stroke-linejoin="round" d="M 17503,2015 L 2627,2015"/>
 <path fill="none" stroke="rgb(179,179,179)" stroke-width="10" stroke-linejoin="round" d="M 17503,1648 L 2627,1648"/>
 <path fill="none" stroke="rgb(179,179,179)" stroke-width="10" stroke-linejoin="round" d="M 17503,1348 L 2627,1348"/>
 <path fill="none" stroke="rgb(179,179,179)" stroke-width="10" stroke-linejoin="round" d="M 17503,1095 L 2627,1095"/>
 <path fill="none" stroke="rgb(179,179,179)" stroke-width="10" stroke-linejoin="round" d="M 17503,875 L 2627,875"/>
 <path fill="none" stroke="rgb(179,179,179)" stroke-width="10" stroke-linejoin="round" d="M 17503,682 L 2627,682"/>
 <path fill="none" stroke="rgb(179,179,179)" stroke-linejoin="round" d="M 2627,12013 L 2627,11863"/>
 <path fill="none" stroke="rgb(179,179,179)" stroke-linejoin="round" d="M 2627,12013 L 2627,11863"/>
 <path fill="none" stroke="rgb(179,179,179)" stroke-linejoin="round" d="M 7586,12013 L 7586,11863"/>
 <path fill="none" stroke="rgb(179,179,179)" stroke-linejoin="round" d="M 7586,12013 L 7586,11863"/>
 <path fill="none" stroke="rgb(179,179,179)" stroke-linejoin="round" d="M 12544,12013 L 12544,11863"/>
 <path fill="none" stroke="rgb(179,179,179)" stroke-linejoin="round" d="M 12544,12013 L 12544,11863"/>
 <path fill="none" stroke="rgb(179,179,179)" stroke-linejoin="round" d="M 17503,12013 L 17503,11863"/>
 <path fill="none" stroke="rgb(179,179,179)" stroke-linejoin="round" d="M 17503,12013 L 17503,11863"/>
 <path fill="none" stroke="rgb(179,179,179)" stroke-linejoin="round" d="M 2627,11863 L 17503,11863"/>
 <path fill="none" stroke="rgb(179,179,179)" stroke-linejoin="round" d="M 2477,11862 L 2627,11862"/>
 <path fill="none" stroke="rgb(179,179,179)" stroke-linejoin="round" d="M 2477,11862 L 2627,11862"/>
 <path fill="none" stroke="rgb(179,179,179)" stroke-linejoin="round" d="M 2477,8077 L 2627,8077"/>
 <path fill="none" stroke="rgb(179,179,179)" stroke-linejoin="round" d="M 2477,8077 L 2627,8077"/>
 <path fill="none" stroke="rgb(179,179,179)" stroke-linejoin="round" d="M 2477,4293 L 2627,4293"/>
 <path fill="none" stroke="rgb(179,179,179)" stroke-linejoin="round" d="M 2477,4293 L 2627,4293"/>
 <path fill="none" stroke="rgb(179,179,179)" stroke-linejoin="round" d="M 2477,508 L 2627,508"/>
 <path fill="none" stroke="rgb(179,179,179)" stroke-linejoin="round" d="M 2477,508 L 2627,508"/>
 <path fill="none" stroke="rgb(179,179,179)" stroke-linejoin="round" d="M 2627,11863 L 2627,509"/>
 <path fill="none" stroke="rgb(255,0,255)" stroke-width="80" stroke-linejoin="round" d="M 6803,11863 L 6817,11782 7105,10921 7359,10358 7586,9940 7791,9607 8459,8703 9078,8005 9559,7517 9951,7141 10283,6836 10570,6578 11051,6159 11256,5984 11443,5825 11616,5681 11775,5546 11924,5378 12063,5226 12317,4959 12544,4730 14036,3358 16010,1726 17503,547"/>
 <path fill="none" stroke="rgb(128,128,128)" stroke-width="80" stroke-linejoin="round" d="M 2627,11863 L 4119,10723 4993,10057 5612,9584 6093,9217 6485,8917 6817,8664 7105,8444 7359,8251 7586,8077 7791,7921 8459,7412 9078,6939 9559,6572 9951,6273 10283,6019 10570,5800 11051,5433 11256,5276 11443,5133 11616,5002 11775,4880 11924,4766 12063,4660 12317,4467 12544,4293 14036,3154 16010,1648 17503,509"/>
 <path fill="none" stroke="rgb(87,157,28)" stroke-width="80" stroke-linejoin="round" d="M 9692,11863 L 9951,11019 10283,10109 10570,9515 11051,8716 11256,8384 11443,8107 11616,7871 11775,7660 11924,7413 12063,7198 12317,6806 12544,6477 14036,4740 16010,2952 17503,1728"/>
 <path fill="none" stroke="rgb(255,211,32)" stroke-width="80" stroke-linejoin="round" d="M 2627,11168 L 4119,11168 4993,11168 5612,11168 6093,11168 6485,10921 6817,10683 7105,10475 7359,10290 7586,10124 7791,9973 8459,9479 9078,9017 9559,8656 9951,8361 10283,8111 10570,7894 11051,7531 11256,7376 11443,7234 11616,7103 11775,6988 11924,6988 12063,6988 12317,6988 12544,6988 14036,6988 16010,6988 17503,6988"/>
 <path fill="none" stroke="rgb(0,69,134)" stroke-width="80" stroke-linejoin="round" d="M 4694,11863 L 4993,11225 5612,10373 6093,9815 6485,9493 6817,9233 7105,9009 7359,8812 7586,8636 7791,8477 8459,7961 9078,7485 9559,7187 9951,6946 10283,6761 10570,6596 11051,6313 11256,6200 11443,6093 11616,5993 11775,5897 11924,5775 12063,5662 12317,5470 12544,5303 14036,4223 16010,2759 17503,1634"/>
 <path fill="none" stroke="rgb(192,192,192)" stroke-width="80" stroke-linejoin="round" stroke-dasharray="158,102" d="M 4694,11863 L 4993,11225 5612,10373 6093,9815 6485,9493 6817,9233 7105,9009 7359,8812 7586,8636 7791,8477 8459,7961 9078,7485 9559,7115 9951,6814 10283,6559 10570,6339 11051,5971 11256,5814 11443,5670 11616,5538 11775,5414 11924,5259 12063,5117 12317,4866 12544,4648 14036,3322 16010,1713 17503,541"/>
 <path fill="none" stroke="rgb(255,66,14)" stroke-width="80" stroke-linejoin="round" stroke-dasharray="158,102" d="M 2627,11168 L 4119,11168 4993,11168 5612,11168 6093,11168 6485,10921 6817,10683 7105,10475 7359,10290 7586,10124 7791,9973 8459,9479 9078,9017 9559,8486 9951,8063 10283,7684 10570,7374 11051,6880 11256,6664 11443,6474 11616,6303 11775,6151 11924,6048 12063,5950 12317,5755 12544,5573 14036,4367 16010,2816 17503,1662"/>
 <text class="TextShape"><tspan class="TextParagraph" font-family="Liberation Sans" font-size="353px" font-weight="400"><tspan class="TextPosition" x="1826" y="12433"><tspan fill="rgb(0,0,0)" stroke="none">€ </tspan><tspan fill="rgb(0,0,0)" stroke="none">1.000,00</tspan></tspan></tspan></text>
 <text class="TextShape"><tspan class="TextParagraph" font-family="Liberation Sans" font-size="353px" font-weight="400"><tspan class="TextPosition" x="6693" y="12433"><tspan fill="rgb(0,0,0)" stroke="none">€ </tspan><tspan fill="rgb(0,0,0)" stroke="none">10.000,00</tspan></tspan></tspan></text>
 <text class="TextShape"><tspan class="TextParagraph" font-family="Liberation Sans" font-size="353px" font-weight="400"><tspan class="TextPosition" x="11549" y="12433"><tspan fill="rgb(0,0,0)" stroke="none">€ </tspan><tspan fill="rgb(0,0,0)" stroke="none">100.000,00</tspan></tspan></tspan></text>
 <text class="TextShape"><tspan class="TextParagraph" font-family="Liberation Sans" font-size="353px" font-weight="400"><tspan class="TextPosition" x="16371" y="12433"><tspan fill="rgb(0,0,0)" stroke="none">€ </tspan><tspan fill="rgb(0,0,0)" stroke="none">1.000.000,00</tspan></tspan></tspan></text>
 <text class="TextShape"><tspan class="TextParagraph" font-family="Liberation Sans" font-size="353px" font-weight="400"><tspan class="TextPosition" x="775" y="11989"><tspan fill="rgb(0,0,0)" stroke="none">€ </tspan><tspan fill="rgb(0,0,0)" stroke="none">1.000,00</tspan></tspan></tspan></text>
 <text class="TextShape"><tspan class="TextParagraph" font-family="Liberation Sans" font-size="353px" font-weight="400"><tspan class="TextPosition" x="592" y="8204"><tspan fill="rgb(0,0,0)" stroke="none">€ </tspan><tspan fill="rgb(0,0,0)" stroke="none">10.000,00</tspan></tspan></tspan></text>
 <text class="TextShape"><tspan class="TextParagraph" font-family="Liberation Sans" font-size="353px" font-weight="400"><tspan class="TextPosition" x="386" y="4419"><tspan fill="rgb(0,0,0)" stroke="none">€ </tspan><tspan fill="rgb(0,0,0)" stroke="none">100.000,00</tspan></tspan></tspan></text>
 <text class="TextShape"><tspan class="TextParagraph" font-family="Liberation Sans" font-size="353px" font-weight="400"><tspan class="TextPosition" x="111" y="634"><tspan fill="rgb(0,0,0)" stroke="none">€ </tspan><tspan fill="rgb(0,0,0)" stroke="none">1.000.000,00</tspan></tspan></tspan></text>
 <path fill="none" stroke="rgb(255,66,14)" stroke-width="80" stroke-linejoin="round" stroke-dasharray="158,102" d="M 3678,13096 L 5278,13096"/>
 <path fill="none" stroke="rgb(192,192,192)" stroke-width="80" stroke-linejoin="round" stroke-dasharray="158,102" d="M 10416,13096 L 12016,13096"/>
 <path fill="none" stroke="rgb(0,69,134)" stroke-width="80" stroke-linejoin="round" d="M 3678,13586 L 5278,13586"/>
 <path fill="none" stroke="rgb(255,211,32)" stroke-width="80" stroke-linejoin="round" d="M 10416,13586 L 12016,13586"/>
 <path fill="none" stroke="rgb(87,157,28)" stroke-width="80" stroke-linejoin="round" d="M 3678,14076 L 5278,14076"/>
 <path fill="none" stroke="rgb(128,128,128)" stroke-width="80" stroke-linejoin="round" d="M 10416,14076 L 12016,14076"/>
 <path fill="none" stroke="rgb(255,0,255)" stroke-width="80" stroke-linejoin="round" d="M 3678,14566 L 5278,14566"/>
 <text class="TextShape"><tspan class="TextParagraph" font-family="Liberation Sans" font-size="353px" font-weight="400"><tspan class="TextPosition" x="5378" y="13222"><tspan fill="rgb(0,0,0)" stroke="none">Summe ESt, SVA</tspan></tspan></tspan></text>
 <text class="TextShape"><tspan class="TextParagraph" font-family="Liberation Sans" font-size="353px" font-weight="400"><tspan class="TextPosition" x="12116" y="13222"><tspan fill="rgb(0,0,0)" stroke="none">BMGr-SVA</tspan></tspan></tspan></text>
 <text class="TextShape"><tspan class="TextParagraph" font-family="Liberation Sans" font-size="353px" font-weight="400"><tspan class="TextPosition" x="5378" y="13712"><tspan fill="rgb(0,0,0)" stroke="none">Uns bleiben</tspan></tspan></tspan></text>
 <text class="TextShape"><tspan class="TextParagraph" font-family="Liberation Sans" font-size="353px" font-weight="400"><tspan class="TextPosition" x="12116" y="13712"><tspan fill="rgb(0,0,0)" stroke="none">Summe SVA</tspan></tspan></tspan></text>
 <text class="TextShape"><tspan class="TextParagraph" font-family="Liberation Sans" font-size="353px" font-weight="400"><tspan class="TextPosition" x="5378" y="14202"><tspan fill="rgb(0,0,0)" stroke="none">ESt der (BMGr-SVA-Freibetrag)</tspan></tspan></tspan></text>
 <text class="TextShape"><tspan class="TextParagraph" font-family="Liberation Sans" font-size="353px" font-weight="400"><tspan class="TextPosition" x="12116" y="14202"><tspan fill="rgb(0,0,0)" stroke="none">Bemessungsgrundlage</tspan></tspan></tspan></text>
 <text class="TextShape"><tspan class="TextParagraph" font-family="Liberation Sans" font-size="353px" font-weight="400"><tspan class="TextPosition" x="5378" y="14692"><tspan fill="rgb(0,0,0)" stroke="none">BMGr-SVA-Freibetrag</tspan></tspan></tspan></text>
</svg>